<svg xmlns="http://www.w3.org/2000/svg" width="512" height="512" viewBox="0 0 512 512" role="img" aria-label="Commute Compare">
  <rect width="512" height="512" rx="112" fill="#3B82F6"/>
  <path d="M130 321c0-78 56-142 126-142s126 64 126 142" fill="none" stroke="#DBEAFE" stroke-width="34" stroke-linecap="round"/>
  <path d="M158 320h196" fill="none" stroke="#FFFFFF" stroke-width="34" stroke-linecap="round"/>
  <circle cx="158" cy="320" r="44" fill="#FFFFFF"/>
  <circle cx="354" cy="320" r="44" fill="#FFFFFF"/>
  <circle cx="158" cy="320" r="18" fill="#2563EB"/>
  <circle cx="354" cy="320" r="18" fill="#2563EB"/>
  <path d="M178 170h156c18 0 32 14 32 32v84H146v-84c0-18 14-32 32-32Z" fill="#EFF6FF"/>
  <path d="M186 205h140" fill="none" stroke="#60A5FA" stroke-width="24" stroke-linecap="round"/>
  <path d="M256 86l64 62H192l64-62Z" fill="#FFFFFF"/>
</svg>
